<svg class="svg-icon" style="width: 1em; height: 1em;vertical-align: middle;fill: currentColor;overflow: hidden;" viewBox="0 0 1024 1024" version="1.1" xmlns="http://www.w3.org/2000/svg"><path d="M513.2 488.6c-16.4 0-32.7-3.4-45.7-10.1L183.1 332.8c-16.6-8.5-26.2-21.8-26.4-36.4-0.1-14.4 8.9-27.5 24.8-36L464.4 109c26.8-14.3 67.3-14.4 94.2-0.3L844 259c16.1 8.5 25.3 21.6 25.2 36-0.1 14.6-9.6 28-26.2 36.6L559.1 478.5c-13.1 6.7-29.5 10.1-45.9 10.1zM194.5 296.4c0.8 0.4 2.5 1.8 5.6 3.3l284.3 145.8c15.4 7.9 42.3 7.9 57.6-0.1l283.9-146.9c3.2-1.7 4.9-3.2 5.7-4-0.8 0-2.3-1.3-5-2.7L541.2 141.6c-15.9-8.3-43.6-8.3-59.3 0.2L199.1 293.2c-2.3 1.2-3.8 2.4-4.6 3.2z m364.6 403.2L843 552.7c9.1-4.7 12.7-15.9 8-25-4.7-9.1-15.9-12.7-25-8L542 666.6c-15.3 7.9-42.3 8-57.7 0L200.1 520.9c-9.1-4.7-20.3-1.1-25 8.1-4.7 9.1-1.1 20.3 8.1 25l284.3 145.8c13.1 6.7 29.4 10 45.7 10 16.4 0 32.8-3.4 45.9-10.2z m0 221.1L843 773.9c9.1-4.7 12.7-15.9 8-25-4.7-9.1-15.9-12.7-25-8L542 887.7c-15.3 7.9-42.3 8-57.7 0L200.1 742c-9.1-4.6-20.3-1-25 8.1-4.7 9.1-1.1 20.4 8.1 25l284.3 145.8c13.1 6.7 29.4 10 45.7 10 16.4 0 32.8-3.4 45.9-10.2z"  /></svg>